<svg width="59" height="59" viewBox="0 0 59 59" fill="none" xmlns="http://www.w3.org/2000/svg">
<circle cx="29.5" cy="29.5" r="29.5" fill="#40C351"/>
<path d="M18.0425 41.0644L19.7262 34.9175C18.6875 33.1187 18.1412 31.0775 18.1419 28.9869C18.145 22.4462 23.4675 17.125 30.0087 17.125C33.1831 17.1263 36.1619 18.3619 38.4025 20.6037C40.6425 22.8463 41.8762 25.8263 41.875 28.9963C41.8725 35.5369 36.5487 40.8587 30.0087 40.8587H30.0037C28.0181 40.8581 26.0662 40.36 24.3331 39.4144L18.0425 41.0644Z" fill="white"/>
<path d="M18.0427 41.3769C17.9602 41.3769 17.8802 41.3444 17.8208 41.2844C17.7427 41.205 17.7121 41.0894 17.7414 40.9825L19.3908 34.96C18.3683 33.1437 17.8289 31.0812 17.8302 28.9875C17.8327 22.2737 23.2958 16.8125 30.0089 16.8125C33.2652 16.8138 36.3246 18.0819 38.6239 20.3831C40.9233 22.685 42.1889 25.7437 42.1877 28.9963C42.1852 35.7094 36.7214 41.1712 30.0089 41.1712C28.0158 41.1706 26.0439 40.6787 24.2939 39.7481L18.1221 41.3662C18.0958 41.3737 18.0696 41.3769 18.0427 41.3769Z" fill="white"/>
<path d="M30.009 17.125C33.1834 17.1263 36.1621 18.3619 38.4027 20.6038C40.6427 22.8463 41.8765 25.8263 41.8752 28.9963C41.8727 35.5369 36.549 40.8587 30.009 40.8587H30.004C28.0184 40.8581 26.0665 40.36 24.3334 39.4144L18.0427 41.0644L19.7265 34.9175C18.6877 33.1187 18.1415 31.0775 18.1421 28.9869C18.1452 22.4462 23.4677 17.125 30.009 17.125ZM30.009 16.5C23.124 16.5 17.5202 22.1012 17.5171 28.9869C17.5165 31.0913 18.0477 33.165 19.0552 35.0006L17.4396 40.9C17.3809 41.1156 17.4409 41.3456 17.5984 41.5044C17.7171 41.6244 17.8777 41.69 18.0427 41.69C18.0959 41.69 18.149 41.6831 18.2015 41.6694L24.2559 40.0819C26.0234 40.9994 28.0046 41.4837 30.004 41.4844C36.894 41.4844 42.4977 35.8825 42.5009 28.9969C42.5021 25.66 41.204 22.5225 38.8459 20.1625C36.4865 17.8019 33.3484 16.5013 30.009 16.5Z" fill="#CFD8DC"/>
<path d="M36.985 22.0202C35.1225 20.1564 32.6469 19.1295 30.0119 19.1289C24.5719 19.1289 20.1475 23.5514 20.145 28.9877C20.1444 30.8508 20.6656 32.6645 21.6531 34.2352L21.8881 34.6083L20.8913 38.2464L24.6244 37.2677L24.985 37.4814C26.4988 38.3802 28.235 38.8552 30.005 38.8558H30.0088C35.445 38.8558 39.8694 34.4327 39.8713 28.9958C39.8719 26.3614 38.8475 23.8839 36.985 22.0202Z" fill="#40C351"/>
<path fill-rule="evenodd" clip-rule="evenodd" d="M27.0424 24.0282C26.8205 23.5344 26.5868 23.5244 26.3749 23.5157C26.2018 23.5082 26.0043 23.5088 25.8068 23.5088C25.6093 23.5088 25.288 23.5832 25.0162 23.8801C24.7443 24.1769 23.978 24.8938 23.978 26.3526C23.978 27.8113 25.0405 29.2213 25.1887 29.4188C25.3368 29.6163 27.2399 32.7057 30.2537 33.8944C32.758 34.8819 33.268 34.6857 33.8118 34.6363C34.3555 34.5869 35.5662 33.9194 35.813 33.2269C36.0599 32.5344 36.0599 31.9413 35.9862 31.8176C35.9118 31.6938 35.7143 31.6201 35.418 31.4713C35.1218 31.3226 33.6637 30.6057 33.3918 30.5069C33.1199 30.4082 32.9224 30.3588 32.7243 30.6557C32.5268 30.9519 31.9587 31.6201 31.7855 31.8176C31.6124 32.0157 31.4393 32.0407 31.143 31.8919C30.8468 31.7432 29.8918 31.4307 28.7587 30.4207C27.8774 29.6351 27.2824 28.6644 27.1093 28.3676C26.9362 28.0713 27.0905 27.9107 27.2393 27.7626C27.3724 27.6294 27.5355 27.4163 27.6843 27.2432C27.8324 27.0701 27.8818 26.9463 27.9805 26.7488C28.0793 26.5507 28.0299 26.3776 27.9555 26.2294C27.8824 26.0807 27.3062 24.6144 27.0424 24.0282Z" fill="white"/>
</svg>
